<svg width="41" height="40" viewBox="0 0 41 40" fill="none" xmlns="http://www.w3.org/2000/svg">
<path d="M37.8447 20.027L37.4806 19.6344C37.1798 19.3906 36.9661 19.1198 36.697 18.9505C36.3962 18.7068 36.1825 18.436 35.9134 18.2667L35.011 17.5355L34.8922 17.4881C29.7392 13.0196 24.5941 8.80153 19.5439 4.80685L19.3618 4.61052C18.7919 4.1975 18.2219 3.78448 17.7074 3.26994L17.4699 3.17513C16.8683 2.68765 16.1797 2.22722 15.3168 1.8209C13.4089 0.811919 11.0574 0.61507 8.9669 1.26436C6.87641 1.91364 5.27658 3.25344 4.48421 5.10108C4.1593 5.96061 4.0086 6.76604 3.82625 7.497C3.69936 8.12645 3.69122 8.80331 3.56433 9.43276L3.57217 9.6832C2.54861 16.3229 1.73905 22.3062 1.23842 27.8563L1.18296 27.9578C1.13534 28.3098 1.08772 28.6617 1.1272 28.9866C1.07958 29.3386 1.08742 29.589 1.03979 29.941C1.02382 30.3674 0.952389 30.8953 0.968061 31.3962C1.01508 32.8989 1.37886 34.2188 2.09106 35.4306C3.66586 37.9759 6.70576 39.5605 10.1103 39.6832C11.3138 39.7308 12.5411 39.6025 13.7606 39.2238C14.109 39.1156 14.5129 38.9058 14.8613 38.7976C16.1917 38.2158 17.5142 37.3836 18.5359 36.3076C19.7873 35.0761 20.8251 33.5737 21.9026 31.4689C24.1905 32.4441 26.2014 32.9996 28.1174 33.3317C29.7088 33.5961 31.2607 33.5356 32.8047 33.2246C33.066 33.1434 33.5332 33.0826 33.9687 32.9473C35.1882 32.5686 36.3127 31.9664 37.1126 31.2965C39.5756 29.4358 40.6851 26.4782 40.0684 23.6352C39.6808 22.4912 38.9686 21.2795 37.8447 20.027ZM12.8799 20.4475C12.7771 19.9737 12.7615 19.4728 12.8646 19.0193C13.1816 17.9093 14.1241 17.1109 15.4307 16.7051C16.8243 16.2722 18.1782 16.4417 19.136 17.0714C19.6427 17.3355 20.0068 17.7282 20.2838 18.1479C20.624 18.7166 20.9089 19.3867 21.0195 20.111C21.2802 21.8844 20.9152 24.2737 19.8612 27.1297C17.0271 25.5655 14.8661 23.9609 13.7027 22.3835C13.2992 21.6659 13.046 21.0702 12.8799 20.4475ZM24.733 19.8005C24.5513 18.6769 24.227 17.6818 23.6097 16.6935C23.0557 15.854 22.3275 15.0687 21.433 14.5879C19.4302 13.3556 16.8412 13.0639 14.3152 13.8484C11.8763 14.6059 10.1101 16.2503 9.41264 18.3213C9.11938 19.2553 9.11908 20.1826 9.32463 21.1303C9.56183 22.1524 10.092 23.1678 10.7964 24.1291C12.3555 26.1736 14.9993 28.2183 18.6963 30.1889C17.8168 32.0636 16.8345 33.4644 15.8128 34.5404C15.0445 35.2847 14.213 35.8802 13.2865 36.2522C12.36 36.6243 11.3702 36.8474 10.2855 36.8472C8.17146 36.7451 6.26361 35.7361 5.30608 34.1791C4.80756 33.2382 4.5782 32.4665 4.63396 31.4377C4.62613 31.1873 4.61829 30.9368 4.69756 30.6593C4.72137 30.4834 4.68972 30.4089 4.71353 30.2329C4.75332 29.6305 4.84856 28.9266 4.8567 28.2498L4.82505 28.1753C5.50803 21.8942 6.2543 15.762 7.10334 10.1037L7.09551 9.85325C7.17478 9.57576 7.2224 9.2238 7.27002 8.87185C7.31764 8.51989 7.39691 8.2424 7.44453 7.89044C7.53977 7.18653 7.69831 6.63155 7.88849 6.15102C8.35596 5.16292 9.15587 4.49302 10.2882 4.14132C11.4206 3.78963 12.537 3.86435 13.6374 4.36548C14.144 4.62958 14.6823 4.96814 15.2839 5.45562C15.553 5.6249 15.8538 5.86864 16.0675 6.13944C16.3683 6.38318 16.6375 6.55246 16.8195 6.74879L17.0016 6.94512C22.2022 11.0617 27.2602 15.3068 32.1995 19.5045L32.3499 19.6264C32.6507 19.8701 32.8328 20.0664 33.1336 20.3102C33.4344 20.5539 33.7351 20.7977 33.9172 20.994C34.0676 21.1159 34.0992 21.1903 34.2496 21.3122C34.5188 21.4815 34.7008 21.6778 34.8829 21.8741C35.6111 22.6595 36.0463 23.4515 36.1885 24.2502C36.6234 25.9695 35.9182 27.7901 34.3738 29.0284C33.6293 29.5968 32.7345 30.0433 31.7131 30.192C30.7233 30.4151 29.6385 30.4148 28.4905 30.2657C26.9308 30.0758 25.2128 29.5136 23.012 28.5113C24.5808 25.2424 25.0727 22.2238 24.733 19.8005Z" fill="white"/>
</svg>
