<svg width="41" height="40" viewBox="0 0 41 40" fill="none" xmlns="http://www.w3.org/2000/svg">
<path d="M37.8447 20.028L37.4806 19.6353C37.1798 19.3916 36.9661 19.1208 36.697 18.9515C36.3962 18.7078 36.1825 18.437 35.9134 18.2677L35.011 17.5365L34.8922 17.4891C29.7392 13.0206 24.5941 8.8025 19.5439 4.80783L19.3618 4.6115C18.7919 4.19848 18.2219 3.78546 17.7074 3.27092L17.4699 3.1761C16.8683 2.68862 16.1797 2.22819 15.3168 1.82187C13.4089 0.812896 11.0574 0.616046 8.9669 1.26533C6.87641 1.91462 5.27658 3.25442 4.48421 5.10205C4.1593 5.96159 4.0086 6.76701 3.82625 7.49798C3.69936 8.12743 3.69122 8.80428 3.56433 9.43373L3.57217 9.68417C2.54861 16.3239 1.73905 22.3072 1.23842 27.8573L1.18296 27.9588C1.13534 28.3108 1.08772 28.6627 1.1272 28.9876C1.07958 29.3396 1.08742 29.59 1.03979 29.942C1.02382 30.3684 0.952389 30.8963 0.968061 31.3972C1.01508 32.8998 1.37886 34.2198 2.09106 35.4315C3.66586 37.9769 6.70576 39.5615 10.1103 39.6841C11.3138 39.7318 12.5411 39.6035 13.7606 39.2247C14.109 39.1165 14.5129 38.9068 14.8613 38.7986C16.1917 38.2168 17.5142 37.3846 18.5359 36.3086C19.7873 35.077 20.8251 33.5747 21.9026 31.4699C24.1905 32.4451 26.2014 33.0006 28.1174 33.3327C29.7088 33.5971 31.2607 33.5365 32.8047 33.2255C33.066 33.1444 33.5332 33.0836 33.9687 32.9483C35.1882 32.5696 36.3127 31.9674 37.1126 31.2975C39.5756 29.4367 40.6851 26.4791 40.0684 23.6362C39.6808 22.4922 38.9686 21.2804 37.8447 20.028ZM12.8799 20.4485C12.7771 19.9746 12.7615 19.4738 12.8646 19.0203C13.1816 17.9103 14.1241 17.1118 15.4307 16.706C16.8243 16.2732 18.1782 16.4427 19.136 17.0724C19.6427 17.3365 20.0068 17.7292 20.2838 18.1489C20.624 18.7175 20.9089 19.3877 21.0195 20.112C21.2802 21.8854 20.9152 24.2746 19.8612 27.1307C17.0271 25.5665 14.8661 23.9618 13.7027 22.3845C13.2992 21.6669 13.046 21.0712 12.8799 20.4485ZM24.733 19.8015C24.5513 18.6779 24.227 17.6828 23.6097 16.6944C23.0557 15.855 22.3275 15.0697 21.433 14.5889C19.4302 13.3565 16.8412 13.0649 14.3152 13.8494C11.8763 14.6069 10.1101 16.2513 9.41264 18.3223C9.11938 19.2563 9.11908 20.1836 9.32463 21.1312C9.56183 22.1533 10.092 23.1688 10.7964 24.1301C12.3555 26.1746 14.9993 28.2193 18.6963 30.1898C17.8168 32.0645 16.8345 33.4654 15.8128 34.5414C15.0445 35.2857 14.213 35.8812 13.2865 36.2532C12.36 36.6253 11.3702 36.8484 10.2855 36.8481C8.17146 36.7461 6.26361 35.7371 5.30608 34.1801C4.80756 33.2392 4.5782 32.4675 4.63396 31.4387C4.62613 31.1882 4.61829 30.9378 4.69756 30.6603C4.72137 30.4843 4.68972 30.4099 4.71353 30.2339C4.75332 29.6315 4.84856 28.9276 4.8567 28.2507L4.82505 28.1763C5.50803 21.8952 6.2543 15.763 7.10334 10.1047L7.09551 9.85423C7.17478 9.57674 7.2224 9.22478 7.27002 8.87282C7.31764 8.52087 7.39691 8.24338 7.44453 7.89142C7.53977 7.18751 7.69831 6.63252 7.88849 6.152C8.35596 5.1639 9.15587 4.494 10.2882 4.1423C11.4206 3.7906 12.537 3.86532 13.6374 4.36646C14.144 4.63056 14.6823 4.96912 15.2839 5.4566C15.553 5.62588 15.8538 5.86962 16.0675 6.14041C16.3683 6.38415 16.6375 6.55343 16.8195 6.74976L17.0016 6.9461C22.2022 11.0626 27.2602 15.3078 32.1995 19.5055L32.3499 19.6273C32.6507 19.8711 32.8328 20.0674 33.1336 20.3111C33.4344 20.5549 33.7351 20.7986 33.9172 20.995C34.0676 21.1168 34.0992 21.1913 34.2496 21.3132C34.5188 21.4824 34.7008 21.6788 34.8829 21.8751C35.6111 22.6604 36.0463 23.4525 36.1885 24.2512C36.6234 25.9705 35.9182 27.7911 34.3738 29.0294C33.6293 29.5978 32.7345 30.0443 31.7131 30.193C30.7233 30.4161 29.6385 30.4158 28.4905 30.2666C26.9308 30.0767 25.2128 29.5145 23.012 28.5123C24.5808 25.2434 25.0727 22.2247 24.733 19.8015Z" fill="white"/>
</svg>
