<svg width="41" height="40" viewBox="0 0 41 40" fill="none" xmlns="http://www.w3.org/2000/svg">
<path d="M37.8447 20.0697L37.4806 19.6771C37.1798 19.4333 36.9661 19.1625 36.697 18.9933C36.3962 18.7495 36.1825 18.4787 35.9134 18.3094L35.011 17.5782L34.8922 17.5308C29.7392 13.0623 24.5941 8.84425 19.5439 4.84958L19.3618 4.65324C18.7919 4.24022 18.2219 3.8272 17.7074 3.31267L17.4699 3.21785C16.8683 2.73037 16.1797 2.26994 15.3168 1.86362C13.4089 0.854644 11.0574 0.657794 8.9669 1.30708C6.8764 1.95637 5.27658 3.29617 4.48421 5.1438C4.1593 6.00334 4.0086 6.80876 3.82625 7.53973C3.69936 8.16918 3.69122 8.84603 3.56433 9.47548L3.57217 9.72592C2.54861 16.3657 1.73905 22.3489 1.23842 27.899L1.18296 28.0005C1.13534 28.3525 1.08772 28.7045 1.1272 29.0294C1.07958 29.3813 1.08742 29.6318 1.03979 29.9837C1.02382 30.4101 0.952389 30.9381 0.968061 31.4389C1.01508 32.9416 1.37886 34.2615 2.09106 35.4733C3.66586 38.0187 6.70576 39.6032 10.1103 39.7259C11.3138 39.7735 12.5411 39.6452 13.7606 39.2665C14.109 39.1583 14.5129 38.9485 14.8613 38.8403C16.1917 38.2585 17.5142 37.4263 18.5359 36.3504C19.7873 35.1188 20.8251 33.6164 21.9026 31.5116C24.1905 32.4868 26.2014 33.0424 28.1174 33.3745C29.7088 33.6388 31.2607 33.5783 32.8047 33.2673C33.066 33.1861 33.5332 33.1253 33.9687 32.9901C35.1882 32.6113 36.3127 32.0092 37.1126 31.3393C39.5756 29.4785 40.6851 26.5209 40.0684 23.6779C39.6808 22.5339 38.9686 21.3222 37.8447 20.0697ZM12.8799 20.4902C12.7771 20.0164 12.7615 19.5155 12.8646 19.062C13.1816 17.9521 14.1241 17.1536 15.4307 16.7478C16.8243 16.3149 18.1782 16.4845 19.136 17.1142C19.6427 17.3783 20.0068 17.7709 20.2838 18.1906C20.624 18.7593 20.9089 19.4294 21.0195 20.1537C21.2802 21.9271 20.9152 24.3164 19.8612 27.1725C17.0271 25.6082 14.8661 24.0036 13.7027 22.4262C13.2992 21.7086 13.046 21.113 12.8799 20.4902ZM24.733 19.8432C24.5513 18.7196 24.227 17.7246 23.6097 16.7362C23.0557 15.8968 22.3275 15.1114 21.433 14.6306C19.4302 13.3983 16.8412 13.1066 14.3152 13.8912C11.8763 14.6487 10.1101 16.293 9.41264 18.364C9.11938 19.298 9.11908 20.2253 9.32463 21.173C9.56183 22.1951 10.092 23.2105 10.7964 24.1718C12.3555 26.2163 14.9993 28.2611 18.6963 30.2316C17.8168 32.1063 16.8345 33.5071 15.8128 34.5831C15.0445 35.3275 14.213 35.9229 13.2865 36.295C12.36 36.667 11.3702 36.8901 10.2855 36.8899C8.17146 36.7878 6.26361 35.7789 5.30608 34.2219C4.80756 33.2809 4.5782 32.5092 4.63396 31.4804C4.62613 31.23 4.61829 30.9796 4.69756 30.7021C4.72137 30.5261 4.68972 30.4516 4.71353 30.2756C4.75332 29.6732 4.84856 28.9693 4.8567 28.2925L4.82505 28.218C5.50803 21.9369 6.2543 15.8048 7.10334 10.1464L7.09551 9.89598C7.17478 9.61848 7.2224 9.26653 7.27002 8.91457C7.31764 8.56262 7.39691 8.28512 7.44453 7.93317C7.53977 7.22926 7.69831 6.67427 7.88849 6.19375C8.35596 5.20564 9.15587 4.53574 10.2882 4.18405C11.4206 3.83235 12.537 3.90707 13.6374 4.40821C14.144 4.67231 14.6823 5.01086 15.2839 5.49835C15.553 5.66762 15.8538 5.91137 16.0675 6.18216C16.3683 6.4259 16.6375 6.59518 16.8195 6.79151L17.0016 6.98785C22.2022 11.1044 27.2602 15.3495 32.1995 19.5472L32.3499 19.6691C32.6507 19.9128 32.8328 20.1092 33.1336 20.3529C33.4344 20.5966 33.7352 20.8404 33.9172 21.0367C34.0676 21.1586 34.0992 21.233 34.2496 21.3549C34.5188 21.5242 34.7008 21.7205 34.8829 21.9169C35.611 22.7022 36.0463 23.4942 36.1885 24.2929C36.6234 26.0123 35.9182 27.8329 34.3738 29.0711C33.6293 29.6395 32.7345 30.086 31.7131 30.2347C30.7233 30.4578 29.6385 30.4576 28.4905 30.3084C26.9308 30.1185 25.2128 29.5563 23.012 28.554C24.5808 25.2852 25.0727 22.2665 24.733 19.8432Z" fill="white"/>
</svg>
