<svg width="41" height="40" viewBox="0 0 41 40" fill="none" xmlns="http://www.w3.org/2000/svg">
<path d="M37.8447 19.569L37.4806 19.1763C37.1798 18.9326 36.9661 18.6618 36.697 18.4925C36.3962 18.2488 36.1825 17.978 35.9134 17.8087L35.011 17.0775L34.8922 17.0301C29.7392 12.5616 24.5941 8.34352 19.5439 4.34884L19.3618 4.15251C18.7919 3.73949 18.2219 3.32647 17.7074 2.81194L17.4699 2.71712C16.8683 2.22964 16.1797 1.76921 15.3168 1.36289C13.4089 0.353912 11.0574 0.157062 8.9669 0.806348C6.8764 1.45563 5.27658 2.79543 4.48421 4.64307C4.1593 5.5026 4.0086 6.30803 3.82625 7.03899C3.69936 7.66844 3.69122 8.3453 3.56433 8.97475L3.57217 9.22519C2.54861 15.8649 1.73905 21.8482 1.23842 27.3983L1.18296 27.4998C1.13534 27.8518 1.08772 28.2037 1.1272 28.5286C1.07958 28.8806 1.08742 29.131 1.03979 29.483C1.02382 29.9094 0.952389 30.4373 0.968061 30.9382C1.01508 32.4409 1.37886 33.7608 2.09106 34.9726C3.66586 37.5179 6.70576 39.1025 10.1103 39.2251C11.3138 39.2728 12.5411 39.1445 13.7606 38.7658C14.109 38.6575 14.5129 38.4478 14.8613 38.3396C16.1917 37.7578 17.5142 36.9256 18.5359 35.8496C19.7873 34.618 20.8251 33.1157 21.9026 31.0109C24.1905 31.9861 26.2014 32.5416 28.1174 32.8737C29.7088 33.1381 31.2607 33.0775 32.8047 32.7666C33.066 32.6854 33.5332 32.6246 33.9687 32.4893C35.1882 32.1106 36.3127 31.5084 37.1126 30.8385C39.5756 28.9778 40.6851 26.0202 40.0684 23.1772C39.6808 22.0332 38.9686 20.8215 37.8447 19.569ZM12.8799 19.9895C12.7771 19.5156 12.7615 19.0148 12.8646 18.5613C13.1816 17.4513 14.1241 16.6529 15.4307 16.247C16.8243 15.8142 18.1782 15.9837 19.136 16.6134C19.6427 16.8775 20.0068 17.2702 20.2838 17.6899C20.624 18.2586 20.9089 18.9287 21.0195 19.653C21.2802 21.4264 20.9152 23.8156 19.8612 26.6717C17.0271 25.1075 14.8661 23.5028 13.7027 21.9255C13.2992 21.2079 13.046 20.6122 12.8799 19.9895ZM24.733 19.3425C24.5513 18.2189 24.227 17.2238 23.6097 16.2355C23.0557 15.396 22.3275 14.6107 21.433 14.1299C19.4302 12.8975 16.8412 12.6059 14.3152 13.3904C11.8763 14.1479 10.1101 15.7923 9.41264 17.8633C9.11938 18.7973 9.11908 19.7246 9.32463 20.6722C9.56183 21.6944 10.092 22.7098 10.7964 23.6711C12.3555 25.7156 14.9993 27.7603 18.6963 29.7309C17.8168 31.6056 16.8345 33.0064 15.8128 34.0824C15.0445 34.8267 14.213 35.4222 13.2865 35.7942C12.36 36.1663 11.3702 36.3894 10.2855 36.3892C8.17146 36.2871 6.26361 35.2781 5.30608 33.7211C4.80756 32.7802 4.5782 32.0085 4.63396 30.9797C4.62613 30.7293 4.61829 30.4788 4.69756 30.2013C4.72137 30.0253 4.68972 29.9509 4.71353 29.7749C4.75332 29.1725 4.84856 28.4686 4.8567 27.7917L4.82505 27.7173C5.50803 21.4362 6.2543 15.304 7.10334 9.64568L7.09551 9.39524C7.17478 9.11775 7.2224 8.7658 7.27002 8.41384C7.31764 8.06188 7.39691 7.78439 7.44453 7.43244C7.53977 6.72853 7.69831 6.17354 7.88849 5.69301C8.35596 4.70491 9.15587 4.03501 10.2882 3.68331C11.4206 3.33162 12.537 3.40634 13.6374 3.90748C14.144 4.17157 14.6823 4.51013 15.2839 4.99761C15.553 5.16689 15.8538 5.41063 16.0675 5.68143C16.3683 5.92517 16.6375 6.09445 16.8195 6.29078L17.0016 6.48711C22.2022 10.6037 27.2602 14.8488 32.1995 19.0465L32.3499 19.1683C32.6507 19.4121 32.8328 19.6084 33.1336 19.8522C33.4344 20.0959 33.7352 20.3396 33.9172 20.536C34.0676 20.6578 34.0992 20.7323 34.2496 20.8542C34.5188 21.0235 34.7008 21.2198 34.8829 21.4161C35.611 22.2015 36.0463 22.9935 36.1885 23.7922C36.6234 25.5115 35.9182 27.3321 34.3738 28.5704C33.6293 29.1388 32.7345 29.5853 31.7131 29.734C30.7233 29.9571 29.6385 29.9568 28.4905 29.8077C26.9308 29.6178 25.2128 29.0556 23.012 28.0533C24.5808 24.7844 25.0727 21.7658 24.733 19.3425Z" fill="white"/>
</svg>
