<svg width="40" height="40" viewBox="0 0 40 40" fill="none" xmlns="http://www.w3.org/2000/svg">
<path d="M37.3857 19.8608L37.0216 19.4681C36.7208 19.2243 36.5072 18.9536 36.238 18.7843C35.9372 18.5405 35.7235 18.2697 35.4544 18.1005L34.552 17.3692L34.4332 17.3218C29.2802 12.8533 24.1351 8.63527 19.0849 4.64059L18.9028 4.44426C18.3329 4.03124 17.7629 3.61822 17.2485 3.10368L17.011 3.00887C16.4094 2.52139 15.7207 2.06096 14.8578 1.65464C12.9499 0.64566 10.5984 0.44881 8.50792 1.0981C6.41742 1.74738 4.8176 3.08718 4.02522 4.93482C3.70031 5.79435 3.54961 6.59978 3.36727 7.33074C3.24038 7.96019 3.23224 8.63705 3.10535 9.2665L3.11318 9.51694C2.08963 16.1567 1.28006 22.1399 0.779434 27.69L0.723977 27.7916C0.676355 28.1435 0.628734 28.4955 0.668217 28.8204C0.620595 29.1723 0.628432 29.4228 0.58081 29.7747C0.564836 30.2011 0.493404 30.7291 0.509076 31.23C0.556092 32.7326 0.919877 34.0526 1.63208 35.2643C3.20688 37.8097 6.24677 39.3942 9.65137 39.5169C10.8548 39.5646 12.0821 39.4363 13.3016 39.0575C13.65 38.9493 14.0539 38.7396 14.4023 38.6313C15.7327 38.0496 17.0552 37.2173 18.0769 36.1414C19.3284 34.9098 20.3661 33.4074 21.4436 31.3026C23.7315 32.2779 25.7424 32.8334 27.6584 33.1655C29.2498 33.4298 30.8017 33.3693 32.3457 33.0583C32.607 32.9771 33.0742 32.9163 33.5097 32.7811C34.7292 32.4023 35.8537 31.8002 36.6536 31.1303C39.1166 29.2695 40.2261 26.3119 39.6094 23.4689C39.2218 22.325 38.5096 21.1132 37.3857 19.8608ZM12.4209 20.2812C12.3182 19.8074 12.3025 19.3065 12.4056 18.853C12.7226 17.7431 13.6651 16.9446 14.9717 16.5388C16.3653 16.1059 17.7192 16.2755 18.6771 16.9052C19.1837 17.1693 19.5478 17.5619 19.8248 17.9817C20.1651 18.5503 20.4499 19.2205 20.5605 19.9447C20.8212 21.7182 20.4562 24.1074 19.4022 26.9635C16.5682 25.3993 14.4071 23.7946 13.2438 22.2172C12.8402 21.4997 12.587 20.904 12.4209 20.2812ZM24.274 19.6343C24.0923 18.5106 23.768 17.5156 23.1507 16.5272C22.5967 15.6878 21.8686 14.9024 20.974 14.4217C18.9712 13.1893 16.3822 12.8976 13.8562 13.6822C11.4173 14.4397 9.6511 16.084 8.95366 18.1551C8.6604 19.089 8.6601 20.0163 8.86565 20.964C9.10285 21.9861 9.633 23.0015 10.3374 23.9628C11.8965 26.0073 14.5404 28.0521 18.2373 30.0226C17.3578 31.8973 16.3756 33.2982 15.3538 34.3741C14.5856 35.1185 13.754 35.7139 12.8275 36.086C11.901 36.458 10.9112 36.6812 9.82648 36.6809C7.71248 36.5789 5.80463 35.5699 4.84709 34.0129C4.34858 33.0719 4.11922 32.3003 4.17498 31.2714C4.16714 31.021 4.15931 30.7706 4.23857 30.4931C4.26239 30.3171 4.23074 30.2426 4.25455 30.0667C4.29433 29.4643 4.38958 28.7603 4.39772 28.0835L4.36607 28.009C5.04905 21.7279 5.79531 15.5958 6.64436 9.93743L6.63652 9.68699C6.71579 9.4095 6.76341 9.05754 6.81104 8.70559C6.85866 8.35363 6.93793 8.07614 6.98555 7.72418C7.08079 7.02027 7.23933 6.46529 7.42951 5.98476C7.89698 4.99666 8.69689 4.32676 9.82924 3.97506C10.9616 3.62337 12.078 3.69809 13.1784 4.19923C13.685 4.46332 14.2233 4.80188 14.8249 5.28936C15.0941 5.45864 15.3949 5.70238 15.6085 5.97318C15.9093 6.21692 16.1785 6.3862 16.3605 6.58253L16.5426 6.77886C21.7432 10.8954 26.8012 15.1405 31.7405 19.3382L31.8909 19.4601C32.1917 19.7038 32.3738 19.9002 32.6746 20.1439C32.9754 20.3877 33.2762 20.6314 33.4582 20.8277C33.6086 20.9496 33.6403 21.0241 33.7907 21.1459C34.0598 21.3152 34.2418 21.5115 34.4239 21.7079C35.1521 22.4932 35.5873 23.2852 35.7295 24.084C36.1645 25.8033 35.4592 27.6239 33.9148 28.8622C33.1704 29.4305 32.2755 29.8771 31.2541 30.0257C30.2643 30.2488 29.1796 30.2486 28.0315 30.0994C26.4718 29.9095 24.7538 29.3473 22.553 28.345C24.1218 25.0762 24.6137 22.0575 24.274 19.6343Z" fill="white"/>
</svg>
