<svg width="41" height="39" viewBox="0 0 41 39" fill="none" xmlns="http://www.w3.org/2000/svg">
<path d="M37.8447 19.1938L37.4806 18.8011C37.1798 18.5574 36.9661 18.2866 36.697 18.1173C36.3962 17.8735 36.1825 17.6027 35.9134 17.4335L35.011 16.7022L34.8922 16.6548C29.7392 12.1863 24.5941 7.96827 19.5439 3.9736L19.3618 3.77727C18.7919 3.36425 18.2219 2.95123 17.7074 2.43669L17.4699 2.34188C16.8683 1.85439 16.1797 1.39396 15.3168 0.987643C13.4089 -0.0213325 11.0574 -0.218183 8.9669 0.431103C6.8764 1.08039 5.27658 2.42019 4.48421 4.26783C4.1593 5.12736 4.0086 5.93279 3.82625 6.66375C3.69936 7.2932 3.69122 7.97006 3.56433 8.59951L3.57217 8.84994C2.54861 15.4897 1.73905 21.4729 1.23842 27.0231L1.18296 27.1246C1.13534 27.4765 1.08772 27.8285 1.1272 28.1534C1.07958 28.5053 1.08742 28.7558 1.03979 29.1077C1.02382 29.5342 0.952389 30.0621 0.968061 30.563C1.01508 32.0656 1.37886 33.3856 2.09106 34.5973C3.66586 37.1427 6.70576 38.7273 10.1103 38.8499C11.3138 38.8976 12.5411 38.7693 13.7606 38.3905C14.109 38.2823 14.5129 38.0726 14.8613 37.9644C16.1917 37.3826 17.5142 36.5504 18.5359 35.4744C19.7873 34.2428 20.8251 32.7404 21.9026 30.6356C24.1905 31.6109 26.2014 32.1664 28.1174 32.4985C29.7088 32.7628 31.2607 32.7023 32.8047 32.3913C33.066 32.3102 33.5332 32.2493 33.9687 32.1141C35.1882 31.7353 36.3127 31.1332 37.1126 30.4633C39.5756 28.6025 40.6851 25.6449 40.0684 22.802C39.6808 21.658 38.9686 20.4462 37.8447 19.1938ZM12.8799 19.6142C12.7771 19.1404 12.7615 18.6395 12.8646 18.1861C13.1816 17.0761 14.1241 16.2776 15.4307 15.8718C16.8243 15.4389 18.1782 15.6085 19.136 16.2382C19.6427 16.5023 20.0068 16.895 20.2838 17.3147C20.624 17.8833 20.9089 18.5535 21.0195 19.2777C21.2802 21.0512 20.9152 23.4404 19.8612 26.2965C17.0271 24.7323 14.8661 23.1276 13.7027 21.5502C13.2992 20.8327 13.046 20.237 12.8799 19.6142ZM24.733 18.9673C24.5513 17.8436 24.227 16.8486 23.6097 15.8602C23.0557 15.0208 22.3275 14.2355 21.433 13.7547C19.4302 12.5223 16.8412 12.2306 14.3152 13.0152C11.8763 13.7727 10.1101 15.417 9.41264 17.4881C9.11938 18.4221 9.11908 19.3494 9.32463 20.297C9.56183 21.3191 10.092 22.3345 10.7964 23.2958C12.3555 25.3403 14.9993 27.3851 18.6963 29.3556C17.8168 31.2303 16.8345 32.6312 15.8128 33.7071C15.0445 34.4515 14.213 35.0469 13.2865 35.419C12.36 35.791 11.3702 36.0142 10.2855 36.0139C8.17146 35.9119 6.26361 34.9029 5.30608 33.3459C4.80756 32.4049 4.5782 31.6333 4.63396 30.6045C4.62613 30.354 4.61829 30.1036 4.69756 29.8261C4.72137 29.6501 4.68972 29.5756 4.71353 29.3997C4.75332 28.7973 4.84856 28.0934 4.8567 27.4165L4.82505 27.342C5.50803 21.0609 6.2543 14.9288 7.10334 9.27044L7.09551 9.02C7.17478 8.74251 7.2224 8.39055 7.27002 8.0386C7.31764 7.68664 7.39691 7.40915 7.44453 7.05719C7.53977 6.35328 7.69831 5.79829 7.88849 5.31777C8.35596 4.32967 9.15587 3.65977 10.2882 3.30807C11.4206 2.95637 12.537 3.03109 13.6374 3.53223C14.144 3.79633 14.6823 4.13489 15.2839 4.62237C15.553 4.79165 15.8538 5.03539 16.0675 5.30618C16.3683 5.54992 16.6375 5.7192 16.8195 5.91554L17.0016 6.11187C22.2022 10.2284 27.2602 14.4735 32.1995 18.6712L32.3499 18.7931C32.6507 19.0368 32.8328 19.2332 33.1336 19.4769C33.4344 19.7207 33.7352 19.9644 33.9172 20.1607C34.0676 20.2826 34.0992 20.3571 34.2496 20.4789C34.5188 20.6482 34.7008 20.8445 34.8829 21.0409C35.611 21.8262 36.0463 22.6182 36.1885 23.417C36.6234 25.1363 35.9182 26.9569 34.3738 28.1952C33.6293 28.7635 32.7345 29.2101 31.7131 29.3587C30.7233 29.5819 29.6385 29.5816 28.4905 29.4324C26.9308 29.2425 25.2128 28.6803 23.012 27.678C24.5808 24.4092 25.0727 21.3905 24.733 18.9673Z" fill="white"/>
</svg>
