<svg width="41" height="40" viewBox="0 0 41 40" fill="none" xmlns="http://www.w3.org/2000/svg">
<path d="M37.8447 20.0693L37.4806 19.6766C37.1798 19.4328 36.9661 19.162 36.697 18.9928C36.3962 18.749 36.1825 18.4782 35.9134 18.309L35.011 17.5777L34.8922 17.5303C29.7392 13.0618 24.5941 8.84376 19.5439 4.84909L19.3618 4.65276C18.7919 4.23974 18.2219 3.82672 17.7074 3.31218L17.4699 3.21736C16.8683 2.72988 16.1797 2.26945 15.3168 1.86313C13.4089 0.854156 11.0574 0.657306 8.9669 1.30659C6.8764 1.95588 5.27658 3.29568 4.48421 5.14331C4.1593 6.00285 4.0086 6.80827 3.82625 7.53924C3.69936 8.16869 3.69122 8.84554 3.56433 9.47499L3.57217 9.72543C2.54861 16.3652 1.73905 22.3484 1.23842 27.8985L1.18296 28.0001C1.13534 28.352 1.08772 28.704 1.1272 29.0289C1.07958 29.3808 1.08742 29.6313 1.03979 29.9832C1.02382 30.4096 0.952389 30.9376 0.968061 31.4385C1.01508 32.9411 1.37886 34.2611 2.09106 35.4728C3.66586 38.0182 6.70576 39.6027 10.1103 39.7254C11.3138 39.7731 12.5411 39.6448 13.7606 39.266C14.109 39.1578 14.5129 38.9481 14.8613 38.8398C16.1917 38.2581 17.5142 37.4258 18.5359 36.3499C19.7873 35.1183 20.8251 33.6159 21.9026 31.5111C24.1905 32.4864 26.2014 33.0419 28.1174 33.374C29.7088 33.6383 31.2607 33.5778 32.8047 33.2668C33.066 33.1856 33.5332 33.1248 33.9687 32.9896C35.1882 32.6108 36.3127 32.0087 37.1126 31.3388C39.5756 29.478 40.6851 26.5204 40.0684 23.6774C39.6808 22.5335 38.9686 21.3217 37.8447 20.0693ZM12.8799 20.4897C12.7771 20.0159 12.7615 19.515 12.8646 19.0615C13.1816 17.9516 14.1241 17.1531 15.4307 16.7473C16.8243 16.3144 18.1782 16.484 19.136 17.1137C19.6427 17.3778 20.0068 17.7704 20.2838 18.1902C20.624 18.7588 20.9089 19.429 21.0195 20.1532C21.2802 21.9267 20.9152 24.3159 19.8612 27.172C17.0271 25.6078 14.8661 24.0031 13.7027 22.4257C13.2992 21.7082 13.046 21.1125 12.8799 20.4897ZM24.733 19.8428C24.5513 18.7191 24.227 17.7241 23.6097 16.7357C23.0557 15.8963 22.3275 15.1109 21.433 14.6302C19.4302 13.3978 16.8412 13.1061 14.3152 13.8907C11.8763 14.6482 10.1101 16.2925 9.41264 18.3635C9.11938 19.2975 9.11908 20.2248 9.32463 21.1725C9.56183 22.1946 10.092 23.21 10.7964 24.1713C12.3555 26.2158 14.9993 28.2606 18.6963 30.2311C17.8168 32.1058 16.8345 33.5067 15.8128 34.5826C15.0445 35.327 14.213 35.9224 13.2865 36.2945C12.36 36.6665 11.3702 36.8897 10.2855 36.8894C8.17146 36.7874 6.26361 35.7784 5.30608 34.2214C4.80756 33.2804 4.5782 32.5088 4.63396 31.4799C4.62613 31.2295 4.61829 30.9791 4.69756 30.7016C4.72137 30.5256 4.68972 30.4511 4.71353 30.2752C4.75332 29.6728 4.84856 28.9688 4.8567 28.292L4.82505 28.2175C5.50803 21.9364 6.2543 15.8043 7.10334 10.1459L7.09551 9.89549C7.17478 9.618 7.2224 9.26604 7.27002 8.91408C7.31764 8.56213 7.39691 8.28464 7.44453 7.93268C7.53977 7.22877 7.69831 6.67378 7.88849 6.19326C8.35596 5.20516 9.15587 4.53526 10.2882 4.18356C11.4206 3.83186 12.537 3.90658 13.6374 4.40772C14.144 4.67182 14.6823 5.01038 15.2839 5.49786C15.553 5.66714 15.8538 5.91088 16.0675 6.18167C16.3683 6.42541 16.6375 6.59469 16.8195 6.79102L17.0016 6.98736C22.2022 11.1039 27.2602 15.349 32.1995 19.5467L32.3499 19.6686C32.6507 19.9123 32.8328 20.1087 33.1336 20.3524C33.4344 20.5961 33.7352 20.8399 33.9172 21.0362C34.0676 21.1581 34.0992 21.2326 34.2496 21.3544C34.5188 21.5237 34.7008 21.72 34.8829 21.9164C35.611 22.7017 36.0463 23.4937 36.1885 24.2925C36.6234 26.0118 35.9182 27.8324 34.3738 29.0707C33.6293 29.639 32.7345 30.0855 31.7131 30.2342C30.7233 30.4573 29.6385 30.4571 28.4905 30.3079C26.9308 30.118 25.2128 29.5558 23.012 28.5535C24.5808 25.2847 25.0727 22.266 24.733 19.8428Z" fill="white"/>
</svg>
