<svg width="41" height="40" viewBox="0 0 41 40" fill="none" xmlns="http://www.w3.org/2000/svg">
<path d="M37.8447 20.071L37.4806 19.6783C37.1798 19.4346 36.9661 19.1638 36.697 18.9945C36.3962 18.7507 36.1825 18.4799 35.9134 18.3107L35.011 17.5794L34.8922 17.532C29.7392 13.0635 24.5941 8.84547 19.5439 4.8508L19.3618 4.65447C18.7919 4.24144 18.2219 3.82843 17.7074 3.31389L17.4699 3.21907C16.8683 2.73159 16.1797 2.27116 15.3168 1.86484C13.4089 0.855865 11.0574 0.659015 8.9669 1.3083C6.87641 1.95759 5.27658 3.29739 4.48421 5.14502C4.1593 6.00456 4.0086 6.80998 3.82625 7.54095C3.69936 8.1704 3.69122 8.84725 3.56433 9.4767L3.57217 9.72714C2.54861 16.3669 1.73905 22.3501 1.23842 27.9003L1.18296 28.0018C1.13534 28.3537 1.08772 28.7057 1.1272 29.0306C1.07958 29.3825 1.08742 29.633 1.03979 29.9849C1.02382 30.4114 0.952389 30.9393 0.968061 31.4402C1.01508 32.9428 1.37886 34.2628 2.09106 35.4745C3.66586 38.0199 6.70576 39.6045 10.1103 39.7271C11.3138 39.7748 12.5411 39.6465 13.7606 39.2677C14.109 39.1595 14.5129 38.9498 14.8613 38.8416C16.1917 38.2598 17.5142 37.4275 18.5359 36.3516C19.7873 35.12 20.8251 33.6176 21.9026 31.5128C24.1905 32.4881 26.2014 33.0436 28.1174 33.3757C29.7088 33.64 31.2607 33.5795 32.8047 33.2685C33.066 33.1874 33.5332 33.1265 33.9687 32.9913C35.1882 32.6125 36.3127 32.0104 37.1126 31.3405C39.5756 29.4797 40.6851 26.5221 40.0684 23.6791C39.6808 22.5352 38.9686 21.3234 37.8447 20.071ZM12.8799 20.4914C12.7771 20.0176 12.7615 19.5167 12.8646 19.0632C13.1816 17.9533 14.1241 17.1548 15.4307 16.749C16.8243 16.3161 18.1782 16.4857 19.136 17.1154C19.6427 17.3795 20.0068 17.7721 20.2838 18.1919C20.624 18.7605 20.9089 19.4307 21.0195 20.1549C21.2802 21.9284 20.9152 24.3176 19.8612 27.1737C17.0271 25.6095 14.8661 24.0048 13.7027 22.4274C13.2992 21.7099 13.046 21.1142 12.8799 20.4914ZM24.733 19.8445C24.5513 18.7208 24.227 17.7258 23.6097 16.7374C23.0557 15.898 22.3275 15.1126 21.433 14.6319C19.4302 13.3995 16.8412 13.1078 14.3152 13.8924C11.8763 14.6499 10.1101 16.2942 9.41264 18.3653C9.11938 19.2993 9.11908 20.2266 9.32463 21.1742C9.56183 22.1963 10.092 23.2117 10.7964 24.173C12.3555 26.2175 14.9993 28.2623 18.6963 30.2328C17.8168 32.1075 16.8345 33.5084 15.8128 34.5843C15.0445 35.3287 14.213 35.9241 13.2865 36.2962C12.36 36.6682 11.3702 36.8914 10.2855 36.8911C8.17146 36.7891 6.26361 35.7801 5.30608 34.2231C4.80756 33.2821 4.5782 32.5105 4.63396 31.4817C4.62613 31.2312 4.61829 30.9808 4.69756 30.7033C4.72137 30.5273 4.68972 30.4528 4.71353 30.2769C4.75332 29.6745 4.84856 28.9706 4.8567 28.2937L4.82505 28.2192C5.50803 21.9381 6.2543 15.806 7.10334 10.1476L7.09551 9.8972C7.17478 9.6197 7.2224 9.26775 7.27002 8.91579C7.31764 8.56384 7.39691 8.28634 7.44453 7.93439C7.53977 7.23048 7.69831 6.67549 7.88849 6.19497C8.35596 5.20686 9.15587 4.53696 10.2882 4.18527C11.4206 3.83357 12.537 3.90829 13.6374 4.40943C14.144 4.67353 14.6823 5.01208 15.2839 5.49957C15.553 5.66885 15.8538 5.91259 16.0675 6.18338C16.3683 6.42712 16.6375 6.5964 16.8195 6.79273L17.0016 6.98907C22.2022 11.1056 27.2602 15.3507 32.1995 19.5484L32.3499 19.6703C32.6507 19.914 32.8328 20.1104 33.1336 20.3541C33.4344 20.5979 33.7351 20.8416 33.9172 21.0379C34.0676 21.1598 34.0992 21.2343 34.2496 21.3561C34.5188 21.5254 34.7008 21.7217 34.8829 21.9181C35.6111 22.7034 36.0463 23.4954 36.1885 24.2942C36.6234 26.0135 35.9182 27.8341 34.3738 29.0724C33.6293 29.6407 32.7345 30.0873 31.7131 30.2359C30.7233 30.459 29.6385 30.4588 28.4905 30.3096C26.9308 30.1197 25.2128 29.5575 23.012 28.5552C24.5808 25.2864 25.0727 22.2677 24.733 19.8445Z" fill="white"/>
</svg>
