<svg width="40" height="40" viewBox="0 0 40 40" fill="none" xmlns="http://www.w3.org/2000/svg">
<path d="M37.5117 19.6938L37.1476 19.3011C36.8468 19.0574 36.6331 18.7866 36.364 18.6173C36.0632 18.3735 35.8495 18.1027 35.5803 17.9335L34.678 17.2022L34.5592 17.1548C29.4062 12.6863 24.2611 8.46827 19.2108 4.4736L19.0288 4.27727C18.4589 3.86425 17.8889 3.45123 17.3744 2.93669L17.1369 2.84188C16.5353 2.35439 15.8466 1.89396 14.9837 1.48764C13.0759 0.478667 10.7244 0.281818 8.63389 0.931103C6.5434 1.58039 4.94358 2.92019 4.1512 4.76783C3.82629 5.62736 3.67559 6.43279 3.49324 7.16375C3.36635 7.7932 3.35821 8.47006 3.23132 9.09951L3.23916 9.34994C2.2156 15.9897 1.40604 21.9729 0.905411 27.5231L0.849953 27.6246C0.802332 27.9765 0.754711 28.3285 0.794194 28.6534C0.746572 29.0053 0.754408 29.2558 0.706787 29.6077C0.690812 30.0342 0.619381 30.5621 0.635053 31.063C0.682069 32.5656 1.04585 33.8856 1.75805 35.0973C3.33285 37.6427 6.37275 39.2273 9.77734 39.3499C10.9808 39.3976 12.2081 39.2693 13.4276 38.8905C13.776 38.7823 14.1799 38.5726 14.5283 38.4644C15.8586 37.8826 17.1812 37.0504 18.2029 35.9744C19.4543 34.7428 20.492 33.2404 21.5695 31.1356C23.8575 32.1109 25.8684 32.6664 27.7844 32.9985C29.3757 33.2628 30.9276 33.2023 32.4717 32.8913C32.733 32.8102 33.2002 32.7493 33.6357 32.6141C34.8552 32.2353 35.9797 31.6332 36.7796 30.9633C39.2426 29.1025 40.3521 26.1449 39.7354 23.302C39.3478 22.158 38.6356 20.9462 37.5117 19.6938ZM12.5469 20.1142C12.4441 19.6404 12.4285 19.1395 12.5315 18.686C12.8486 17.5761 13.7911 16.7776 15.0977 16.3718C16.4913 15.9389 17.8452 16.1085 18.803 16.7382C19.3097 17.0023 19.6738 17.395 19.9508 17.8147C20.291 18.3833 20.5759 19.0535 20.6865 19.7777C20.9472 21.5512 20.5822 23.9404 19.5282 26.7965C16.6941 25.2323 14.5331 23.6276 13.3697 22.0502C12.9662 21.3327 12.713 20.737 12.5469 20.1142ZM24.4 19.4673C24.2182 18.3436 23.8939 17.3486 23.2767 16.3602C22.7227 15.5208 21.9945 14.7355 21.1 14.2547C19.0972 13.0223 16.5082 12.7306 13.9822 13.5152C11.5433 14.2727 9.77707 15.917 9.07964 17.9881C8.78638 18.9221 8.78607 19.8494 8.99162 20.797C9.22882 21.8191 9.75898 22.8345 10.4633 23.7958C12.0225 25.8403 14.6663 27.8851 18.3633 29.8556C17.4838 31.7303 16.5015 33.1312 15.4798 34.2071C14.7115 34.9515 13.88 35.5469 12.9535 35.919C12.027 36.291 11.0372 36.5142 9.95246 36.5139C7.83845 36.4119 5.93061 35.4029 4.97307 33.8459C4.47456 32.9049 4.24519 32.1333 4.30095 31.1045C4.29312 30.854 4.28528 30.6036 4.36455 30.3261C4.38836 30.1501 4.35671 30.0756 4.38053 29.8997C4.42031 29.2973 4.51555 28.5934 4.52369 27.9165L4.49204 27.842C5.17502 21.5609 5.92129 15.4288 6.77034 9.77044L6.7625 9.52C6.84177 9.24251 6.88939 8.89055 6.93701 8.5386C6.98463 8.18664 7.0639 7.90915 7.11152 7.55719C7.20677 6.85328 7.3653 6.29829 7.55548 5.81777C8.02295 4.82967 8.82287 4.15977 9.95522 3.80807C11.0876 3.45637 12.2039 3.53109 13.3044 4.03223C13.811 4.29633 14.3493 4.63489 14.9509 5.12237C15.22 5.29165 15.5208 5.53539 15.7345 5.80618C16.0353 6.04992 16.3045 6.2192 16.4865 6.41554L16.6686 6.61187C21.8692 10.7284 26.9272 14.9735 31.8665 19.1712L32.0169 19.2931C32.3177 19.5368 32.4998 19.7332 32.8006 19.9769C33.1013 20.2207 33.4021 20.4644 33.5842 20.6607C33.7346 20.7826 33.7662 20.8571 33.9166 20.9789C34.1858 21.1482 34.3678 21.3445 34.5499 21.5409C35.278 22.3262 35.7133 23.1182 35.8555 23.917C36.2904 25.6363 35.5852 27.4569 34.0408 28.6952C33.2963 29.2635 32.4015 29.7101 31.38 29.8587C30.3903 30.0819 29.3055 30.0816 28.1575 29.9324C26.5978 29.7425 24.8798 29.1803 22.679 28.178C24.2478 24.9092 24.7397 21.8905 24.4 19.4673Z" fill="white"/>
</svg>
