<svg width="41" height="40" viewBox="0 0 41 40" fill="none" xmlns="http://www.w3.org/2000/svg">
<path d="M37.8447 19.527L37.4806 19.1344C37.1798 18.8906 36.9661 18.6198 36.697 18.4505C36.3962 18.2068 36.1825 17.936 35.9134 17.7667L35.011 17.0355L34.8922 16.9881C29.7392 12.5196 24.5941 8.30153 19.5439 4.30685L19.3618 4.11052C18.7919 3.6975 18.2219 3.28448 17.7074 2.76994L17.4699 2.67513C16.8683 2.18765 16.1797 1.72722 15.3168 1.32089C13.4089 0.311919 11.0574 0.115069 8.9669 0.764355C6.8764 1.41364 5.27658 2.75344 4.48421 4.60108C4.1593 5.46061 4.0086 6.26604 3.82625 6.997C3.69936 7.62645 3.69122 8.30331 3.56433 8.93276L3.57217 9.1832C2.54861 15.8229 1.73905 21.8062 1.23842 27.3563L1.18296 27.4578C1.13534 27.8098 1.08772 28.1617 1.1272 28.4866C1.07958 28.8386 1.08742 29.089 1.03979 29.441C1.02382 29.8674 0.952389 30.3953 0.968061 30.8962C1.01508 32.3989 1.37886 33.7188 2.09106 34.9306C3.66586 37.4759 6.70576 39.0605 10.1103 39.1832C11.3138 39.2308 12.5411 39.1025 13.7606 38.7238C14.109 38.6156 14.5129 38.4058 14.8613 38.2976C16.1917 37.7158 17.5142 36.8836 18.5359 35.8076C19.7873 34.5761 20.8251 33.0737 21.9026 30.9689C24.1905 31.9441 26.2014 32.4996 28.1174 32.8317C29.7088 33.0961 31.2607 33.0356 32.8047 32.7246C33.066 32.6434 33.5332 32.5826 33.9687 32.4473C35.1882 32.0686 36.3127 31.4664 37.1126 30.7965C39.5756 28.9358 40.6851 25.9782 40.0684 23.1352C39.6808 21.9912 38.9686 20.7795 37.8447 19.527ZM12.8799 19.9475C12.7771 19.4737 12.7615 18.9728 12.8646 18.5193C13.1816 17.4093 14.1241 16.6109 15.4307 16.2051C16.8243 15.7722 18.1782 15.9417 19.136 16.5714C19.6427 16.8355 20.0068 17.2282 20.2838 17.6479C20.624 18.2166 20.9089 18.8867 21.0195 19.611C21.2802 21.3844 20.9152 23.7737 19.8612 26.6297C17.0271 25.0655 14.8661 23.4609 13.7027 21.8835C13.2992 21.1659 13.046 20.5702 12.8799 19.9475ZM24.733 19.3005C24.5513 18.1769 24.227 17.1818 23.6097 16.1935C23.0557 15.354 22.3275 14.5687 21.433 14.0879C19.4302 12.8556 16.8412 12.5639 14.3152 13.3484C11.8763 14.1059 10.1101 15.7503 9.41264 17.8213C9.11938 18.7553 9.11908 19.6826 9.32463 20.6303C9.56183 21.6524 10.092 22.6678 10.7964 23.6291C12.3555 25.6736 14.9993 27.7183 18.6963 29.6889C17.8168 31.5636 16.8345 32.9644 15.8128 34.0404C15.0445 34.7847 14.213 35.3802 13.2865 35.7522C12.36 36.1243 11.3702 36.3474 10.2855 36.3472C8.17146 36.2451 6.26361 35.2362 5.30608 33.6791C4.80756 32.7382 4.5782 31.9665 4.63396 30.9377C4.62613 30.6873 4.61829 30.4368 4.69756 30.1593C4.72137 29.9834 4.68972 29.9089 4.71353 29.7329C4.75332 29.1305 4.84856 28.4266 4.8567 27.7498L4.82505 27.6753C5.50803 21.3942 6.2543 15.262 7.10334 9.60369L7.09551 9.35325C7.17478 9.07576 7.2224 8.7238 7.27002 8.37185C7.31764 8.01989 7.39691 7.7424 7.44453 7.39044C7.53977 6.68653 7.69831 6.13155 7.88849 5.65102C8.35596 4.66292 9.15587 3.99302 10.2882 3.64132C11.4206 3.28963 12.537 3.36435 13.6374 3.86549C14.144 4.12958 14.6823 4.46814 15.2839 4.95562C15.553 5.1249 15.8538 5.36864 16.0675 5.63944C16.3683 5.88318 16.6375 6.05246 16.8195 6.24879L17.0016 6.44512C22.2022 10.5617 27.2602 14.8068 32.1995 19.0045L32.3499 19.1264C32.6507 19.3701 32.8328 19.5664 33.1336 19.8102C33.4344 20.0539 33.7352 20.2977 33.9172 20.494C34.0676 20.6159 34.0992 20.6903 34.2496 20.8122C34.5188 20.9815 34.7008 21.1778 34.8829 21.3741C35.611 22.1595 36.0463 22.9515 36.1885 23.7502C36.6234 25.4695 35.9182 27.2901 34.3738 28.5284C33.6293 29.0968 32.7345 29.5433 31.7131 29.692C30.7233 29.9151 29.6385 29.9148 28.4905 29.7657C26.9308 29.5758 25.2128 29.0136 23.012 28.0113C24.5808 24.7424 25.0727 21.7238 24.733 19.3005Z" fill="white"/>
</svg>
